<!-- automatically generated by https://github.com/khimaros/enc using the following invocation: ./enc doc/icon.en -o doc/icon.svg context-files README.md:src/enc.en -->
<svg width="512" height="512" viewBox="0 0 512 512" xmlns="http://www.w3.org/2000/svg">
  <!-- "the icon makes use of gradients to give it an 80s shoe-gaze vibe" -->
  <defs>
    <linearGradient id="g1" x1="0%" y1="0%" x2="100%" y2="100%">
      <stop offset="0%" stop-color="#ff71ce" />
      <stop offset="50%" stop-color="#b967ff" />
      <stop offset="100%" stop-color="#01cdfe" />
    </linearGradient>
    <linearGradient id="g2" x1="100%" y1="0%" x2="0%" y2="100%">
      <stop offset="0%" stop-color="#05ffa1" />
      <stop offset="100%" stop-color="#b967ff" />
    </linearGradient>
  </defs>

  <!-- "the background is transparent but has a dark, opaque, inset shape as the base layer" -->
  <rect x="32" y="32" width="448" height="448" rx="80" fill="#0d0d0d" />

  <!-- "it is more abstract than literal but reflects the purpose of the tool" -->
  <!-- "the foreground colors stand out and contrast nicely with a dark background" -->
  <g stroke-width="12" fill="none" stroke-linecap="round" stroke-linejoin="round">
    <!-- left side: input (loose, organic flow) -->
    <path d="M120 180 Q 160 140 200 180 T 240 180" stroke="url(#g1)" opacity="0.8" />
    <path d="M120 256 H 220" stroke="url(#g1)" opacity="0.6" />
    <path d="M120 332 Q 160 372 200 332 T 240 332" stroke="url(#g1)" opacity="0.8" />
    
    <!-- center: the transpiler core (hacker tool geometry) -->
    <path d="M256 96 L 400 256 L 256 416 L 112 256 Z" stroke="url(#g1)" />
    <path d="M256 140 L 360 256 L 256 372 L 152 256 Z" stroke="url(#g2)" />
    
    <!-- right side: output (structured, rigid code) -->
    <path d="M280 180 H 392" stroke="url(#g2)" />
    <path d="M300 256 H 392" stroke="url(#g2)" />
    <path d="M280 332 H 392" stroke="url(#g2)" />
    <path d="M340 360 H 392" stroke="#01cdfe" stroke-width="8" />
  </g>

  <!-- accent details for hacker tool aesthetic -->
  <circle cx="256" cy="256" r="12" fill="#05ffa1" />
  <path d="M256 32 V 64 M256 448 V 480 M32 256 H 64 M448 256 H 480" stroke="url(#g1)" stroke-width="4" opacity="0.4" />
</svg>